<?xml version="1.0" encoding="utf-8"?>
<!-- Generator: Adobe Illustrator 16.0.0, SVG Export Plug-In . SVG Version: 6.00 Build 0)  -->
<!DOCTYPE svg PUBLIC "-//W3C//DTD SVG 1.1//EN" "http://www.w3.org/Graphics/SVG/1.1/DTD/svg11.dtd">
<svg version="1.1" id="Layer_1" xmlns="http://www.w3.org/2000/svg" xmlns:xlink="http://www.w3.org/1999/xlink" x="0px" y="0px"
	 width="66.333px" height="71.667px" viewBox="33.167 29.833 66.333 71.667" enable-background="new 33.167 29.833 66.333 71.667"
	 xml:space="preserve">
<path d="M92.752,61.692l-5.241-5.423V42.982c0-2.057-1.627-3.741-3.615-3.741H80.28c-1.988,0-3.614,1.685-3.614,3.741v2.069
	l-7.23-7.476c-0.989-0.965-1.893-2.076-3.613-2.076c-1.722,0-2.626,1.111-3.616,2.076L38.891,61.692
	c-1.128,1.216-1.988,2.104-1.988,3.742c0,2.104,1.561,3.741,3.615,3.741h3.614v22.45c0,2.058,1.626,3.741,3.614,3.741h10.846V76.659
	c0-2.058,1.626-3.742,3.614-3.742h7.229c1.988,0,3.615,1.685,3.615,3.742v18.708h10.845c1.988,0,3.615-1.684,3.615-3.741v-22.45
	h3.615c2.054,0,3.614-1.637,3.614-3.741C94.74,63.797,93.88,62.908,92.752,61.692z"/>
</svg>
