<?xml version="1.0" encoding="utf-8"?>
<!-- Generator: Adobe Illustrator 16.0.0, SVG Export Plug-In . SVG Version: 6.00 Build 0)  -->
<!DOCTYPE svg PUBLIC "-//W3C//DTD SVG 1.1//EN" "http://www.w3.org/Graphics/SVG/1.1/DTD/svg11.dtd">
<svg version="1.1" id="Layer_1" xmlns="http://www.w3.org/2000/svg" xmlns:xlink="http://www.w3.org/1999/xlink" x="0px" y="0px"
	 width="222.789px" height="233.5px" viewBox="0 0 222.789 233.5" enable-background="new 0 0 222.789 233.5" xml:space="preserve">
<polygon fill="#FFFFFF" stroke="#000000" stroke-width="3.1524" stroke-miterlimit="10" points="6.432,190.805 112.302,7.432
	218.171,190.805 "/>
<g>
	<g>
		<g>
			<g>
				<g>
					<rect x="111.389" y="7.432" width="1.776" height="4.397"/>
					<rect x="111.389" y="13.981" width="1.776" height="4.397"/>
					<rect x="111.389" y="20.529" width="1.776" height="4.397"/>
					<rect x="111.389" y="27.08" width="1.776" height="4.396"/>
					<rect x="111.389" y="33.627" width="1.776" height="4.397"/>
					<rect x="111.389" y="40.178" width="1.776" height="4.397"/>
					<rect x="111.389" y="46.726" width="1.776" height="4.396"/>
				</g>
			</g>
			<g>
				<g>
					<rect x="111.389" y="53.275" width="1.776" height="4.397"/>
					<rect x="111.389" y="59.824" width="1.776" height="4.397"/>
					<rect x="111.389" y="66.372" width="1.776" height="4.397"/>
					<rect x="111.389" y="72.922" width="1.776" height="4.396"/>
					<rect x="111.389" y="79.47" width="1.776" height="4.397"/>
					<rect x="111.389" y="86.021" width="1.776" height="4.397"/>
					<rect x="111.389" y="92.568" width="1.776" height="4.396"/>
				</g>
			</g>
			<g>
				<g>
					<rect x="111.389" y="99.118" width="1.776" height="4.397"/>
					<rect x="111.389" y="105.667" width="1.776" height="4.397"/>
					<rect x="111.389" y="112.215" width="1.776" height="4.396"/>
					<rect x="111.389" y="118.766" width="1.776" height="4.396"/>
					<rect x="111.389" y="125.312" width="1.776" height="4.397"/>
					<rect x="111.389" y="131.863" width="1.776" height="4.398"/>
					<rect x="111.389" y="138.411" width="1.776" height="4.396"/>
				</g>
			</g>
			<g>
				<g>
					<rect x="111.389" y="144.961" width="1.776" height="4.396"/>
					<rect x="111.389" y="151.51" width="1.776" height="4.396"/>
					<rect x="111.389" y="158.059" width="1.776" height="4.396"/>
					<rect x="111.389" y="164.607" width="1.776" height="4.396"/>
					<rect x="111.389" y="171.156" width="1.776" height="4.396"/>
					<rect x="111.389" y="177.706" width="1.776" height="4.397"/>
					<rect x="111.389" y="184.255" width="1.776" height="4.396"/>
				</g>
			</g>
		</g>
	</g>
</g>
<text transform="matrix(1 0 0 1 91.894 116.6113)" font-family="'STIXGeneral-Italic'" font-size="24">h</text>
<text transform="matrix(1 0 0 1 104.3892 219.5)" font-family="'STIXGeneral-Italic'" font-size="24">B</text>
<text transform="matrix(1 0 0 1 179.894 86.021)" font-family="'STIXGeneral-Italic'" font-size="24">L</text>
</svg>
